<svg width="0" height="0" class="hidden">
  <symbol fill="none" xmlns="http://www.w3.org/2000/svg" viewBox="0 0 22 22" id="icon-instagram">
    <path fill-rule="evenodd" clip-rule="evenodd" d="M6.465 0.066C7.638 0.012 8.012 0 11 0C13.988 0 14.362 0.013 15.534 0.066C16.706 0.119 17.506 0.306 18.206 0.577C18.939 0.854 19.604 1.287 20.154 1.847C20.714 2.396 21.146 3.06 21.422 3.794C21.694 4.494 21.88 5.294 21.934 6.464C21.988 7.639 22 8.013 22 11C22 13.988 21.987 14.362 21.934 15.535C21.881 16.705 21.694 17.505 21.422 18.205C21.146 18.9391 20.7133 19.6042 20.154 20.154C19.604 20.714 18.939 21.146 18.206 21.422C17.506 21.694 16.706 21.88 15.536 21.934C14.362 21.988 13.988 22 11 22C8.012 22 7.638 21.987 6.465 21.934C5.295 21.881 4.495 21.694 3.795 21.422C3.06092 21.146 2.39582 20.7133 1.846 20.154C1.28638 19.6047 0.853315 18.9399 0.577 18.206C0.306 17.506 0.12 16.706 0.066 15.536C0.012 14.361 0 13.987 0 11C0 8.012 0.013 7.638 0.066 6.466C0.119 5.294 0.306 4.494 0.577 3.794C0.853723 3.06008 1.28712 2.39531 1.847 1.846C2.39604 1.2865 3.06047 0.853443 3.794 0.577C4.494 0.306 5.294 0.12 6.464 0.066H6.465ZM15.445 2.046C14.285 1.993 13.937 1.982 11 1.982C8.063 1.982 7.715 1.993 6.555 2.046C5.482 2.095 4.9 2.274 4.512 2.425C3.999 2.625 3.632 2.862 3.247 3.247C2.88205 3.60205 2.60118 4.03428 2.425 4.512C2.274 4.9 2.095 5.482 2.046 6.555C1.993 7.715 1.982 8.063 1.982 11C1.982 13.937 1.993 14.285 2.046 15.445C2.095 16.518 2.274 17.1 2.425 17.488C2.601 17.965 2.882 18.398 3.247 18.753C3.602 19.118 4.035 19.399 4.512 19.575C4.9 19.726 5.482 19.905 6.555 19.954C7.715 20.007 8.062 20.018 11 20.018C13.938 20.018 14.285 20.007 15.445 19.954C16.518 19.905 17.1 19.726 17.488 19.575C18.001 19.375 18.368 19.138 18.753 18.753C19.118 18.398 19.399 17.965 19.575 17.488C19.726 17.1 19.905 16.518 19.954 15.445C20.007 14.285 20.018 13.937 20.018 11C20.018 8.063 20.007 7.715 19.954 6.555C19.905 5.482 19.726 4.9 19.575 4.512C19.375 3.999 19.138 3.632 18.753 3.247C18.3979 2.88207 17.9657 2.60121 17.488 2.425C17.1 2.274 16.518 2.095 15.445 2.046ZM9.595 14.391C10.3797 14.7176 11.2534 14.7617 12.0669 14.5157C12.8805 14.2697 13.5834 13.7489 14.0556 13.0422C14.5278 12.3356 14.7401 11.4869 14.656 10.6411C14.572 9.79534 14.197 9.00497 13.595 8.405C13.2112 8.02148 12.7472 7.72781 12.2363 7.54515C11.7255 7.36248 11.1804 7.29536 10.6405 7.34862C10.1006 7.40187 9.57915 7.57418 9.1138 7.85313C8.64845 8.13208 8.25074 8.51074 7.9493 8.96185C7.64786 9.41296 7.45019 9.92529 7.37052 10.462C7.29084 10.9986 7.33115 11.5463 7.48854 12.0655C7.64593 12.5847 7.91648 13.0626 8.28072 13.4647C8.64496 13.8668 9.09382 14.1832 9.595 14.391ZM7.002 7.002C7.52702 6.47697 8.15032 6.0605 8.8363 5.77636C9.52228 5.49222 10.2575 5.34597 11 5.34597C11.7425 5.34597 12.4777 5.49222 13.1637 5.77636C13.8497 6.0605 14.473 6.47697 14.998 7.002C15.523 7.52702 15.9395 8.15032 16.2236 8.8363C16.5078 9.52228 16.654 10.2575 16.654 11C16.654 11.7425 16.5078 12.4777 16.2236 13.1637C15.9395 13.8497 15.523 14.473 14.998 14.998C13.9377 16.0583 12.4995 16.654 11 16.654C9.50046 16.654 8.06234 16.0583 7.002 14.998C5.94166 13.9377 5.34597 12.4995 5.34597 11C5.34597 9.50046 5.94166 8.06234 7.002 7.002ZM17.908 6.188C18.0381 6.06527 18.1423 5.91768 18.2143 5.75397C18.2863 5.59027 18.3248 5.41377 18.3274 5.23493C18.33 5.05609 18.2967 4.87855 18.2295 4.71281C18.1622 4.54707 18.0624 4.39651 17.936 4.27004C17.8095 4.14357 17.6589 4.04376 17.4932 3.97652C17.3275 3.90928 17.1499 3.87598 16.9711 3.87858C16.7922 3.88119 16.6157 3.91965 16.452 3.9917C16.2883 4.06374 16.1407 4.1679 16.018 4.298C15.7793 4.55103 15.6486 4.88712 15.6537 5.23493C15.6588 5.58274 15.7992 5.91488 16.0452 6.16084C16.2911 6.40681 16.6233 6.54723 16.9711 6.5523C17.3189 6.55737 17.655 6.42669 17.908 6.188Z" fill="#FF581F"></path>
  </symbol>
  <symbol fill="none" xmlns="http://www.w3.org/2000/svg" viewBox="0 0 22 18" id="icon-mail">
    <path d="M21.2143 0L0.785714 0C0.351116 0 0 0.365625 0 0.818182L0 17.1818C0 17.6344 0.351116 18 0.785714 18L21.2143 18C21.6489 18 22 17.6344 22 17.1818L22 0.818182C22 0.365625 21.6489 0 21.2143 0ZM20.2321 2.83295L20.2321 16.1591L1.76786 16.1591L1.76786 2.83295L1.09018 2.28324L2.05513 0.992046L3.10603 1.84347L18.8964 1.84347L19.9473 0.992046L20.9123 2.28324L20.2321 2.83295ZM18.8964 1.84091L11 8.23295L3.10357 1.84091L2.05268 0.989489L1.08772 2.28068L1.7654 2.8304L10.1529 9.62131C10.3941 9.81645 10.6909 9.92237 10.9963 9.92237C11.3018 9.92237 11.5985 9.81645 11.8397 9.62131L20.2321 2.83295L20.9098 2.28324L19.9449 0.992046L18.8964 1.84091Z" fill="#FF581F"></path>
  </symbol>
  <symbol fill="none" xmlns="http://www.w3.org/2000/svg" viewBox="0 0 20 19" id="icon-star">
    <path d="M9.10326 0.816986C9.47008 0.0737407 10.5299 0.0737401 10.8967 0.816986L13.0001 5.07896C13.1458 5.37411 13.4274 5.57868 13.7531 5.62601L18.4565 6.30945C19.2767 6.42863 19.6042 7.4366 19.0107 8.01514L15.6073 11.3326C15.3716 11.5624 15.264 11.8934 15.3197 12.2178L16.1231 16.9021C16.2632 17.719 15.4058 18.342 14.6722 17.9563L10.4653 15.7446C10.174 15.5915 9.82598 15.5915 9.53466 15.7446L5.32784 17.9563C4.59421 18.342 3.73677 17.719 3.87688 16.9021L4.68032 12.2178C4.73596 11.8934 4.62841 11.5624 4.39272 11.3326L0.989329 8.01514C0.395812 7.4366 0.723321 6.42863 1.54354 6.30945L6.24691 5.62601C6.57262 5.57868 6.85419 5.37411 6.99985 5.07896L9.10326 0.816986Z" fill="#FF581F"></path>
  </symbol>
  <symbol fill="none" xmlns="http://www.w3.org/2000/svg" viewBox="0 0 22 22" id="icon-whatsapp">
    <path d="M18.7859 3.19831C17.7727 2.18037 16.5662 1.37334 15.2366 0.824247C13.907 0.275158 12.4809 -0.00501086 11.0414 6.78293e-05C5.00967 6.78293e-05 0.0939226 4.8923 0.0883978 10.8983C0.0883978 12.8219 0.593923 14.6933 1.54834 16.3501L0 22L5.80663 20.4848C7.41299 21.355 9.21261 21.8112 11.0414 21.8116H11.047C17.0801 21.8116 21.9945 16.9194 22 10.9079C22.0014 9.47522 21.718 8.05643 21.1661 6.73325C20.6143 5.41008 19.8048 4.2087 18.7845 3.19831H18.7859ZM11.0414 19.9664C9.41021 19.9669 7.80898 19.5299 6.40608 18.7014L6.07458 18.5034L2.62983 19.4026L3.54972 16.0573L3.33425 15.7121C2.42238 14.2688 1.94012 12.5978 1.94337 10.8928C1.94337 5.90705 6.02762 1.83981 11.047 1.83981C12.2427 1.83768 13.4271 2.07119 14.5318 2.52689C15.6365 2.98258 16.6396 3.65145 17.4834 4.49493C18.3302 5.33512 19.0014 6.33388 19.4585 7.43361C19.9155 8.53334 20.1493 9.71227 20.1464 10.9024C20.1409 15.906 16.0566 19.9664 11.0414 19.9664ZM16.0345 13.1822C15.7624 13.046 14.4185 12.3874 14.1657 12.2939C13.9144 12.2045 13.7307 12.1578 13.5511 12.43C13.3674 12.7009 12.8425 13.3183 12.6851 13.4957C12.5276 13.6785 12.3646 13.6992 12.0912 13.5644C11.8191 13.4269 10.9365 13.1409 9.89226 12.21C9.07735 11.4882 8.53177 10.5944 8.36878 10.3235C8.21132 10.0513 8.35359 9.90554 8.49033 9.76941C8.61049 9.64841 8.76243 9.45041 8.89917 9.29366C9.03729 9.13691 9.08287 9.02141 9.17265 8.83992C9.26243 8.65567 9.21961 8.49892 9.15193 8.36279C9.08287 8.22667 8.53729 6.8833 8.30663 6.34155C8.08563 5.80667 7.86049 5.88092 7.69199 5.87405C7.53453 5.86442 7.35083 5.86442 7.16713 5.86442C7.0284 5.86786 6.89189 5.8998 6.76615 5.95824C6.64041 6.01669 6.52817 6.10037 6.43646 6.20405C6.18508 6.4763 5.48204 7.13492 5.48204 8.47829C5.48204 9.82166 6.46271 11.1128 6.60083 11.2957C6.73619 11.4785 8.52624 14.2271 11.2735 15.4096C11.9226 15.6915 12.4337 15.8579 12.8329 15.9844C13.4889 16.1934 14.0815 16.1618 14.5539 16.0944C15.0787 16.0146 16.1713 15.4344 16.4019 14.7978C16.6284 14.1598 16.6284 13.6153 16.5594 13.5012C16.4917 13.3857 16.308 13.3183 16.0345 13.1822Z" fill="#FF581F"></path>
  </symbol>
</svg>
