<svg width="22" height="22" viewBox="0 0 22 22" fill="none" xmlns="http://www.w3.org/2000/svg">
<path d="M18.7859 3.19831C17.7727 2.18037 16.5662 1.37334 15.2366 0.824247C13.907 0.275158 12.4809 -0.00501086 11.0414 6.78293e-05C5.00967 6.78293e-05 0.0939226 4.8923 0.0883978 10.8983C0.0883978 12.8219 0.593923 14.6933 1.54834 16.3501L0 22L5.80663 20.4848C7.41299 21.355 9.21261 21.8112 11.0414 21.8116H11.047C17.0801 21.8116 21.9945 16.9194 22 10.9079C22.0014 9.47522 21.718 8.05643 21.1661 6.73325C20.6143 5.41008 19.8048 4.2087 18.7845 3.19831H18.7859ZM11.0414 19.9664C9.41021 19.9669 7.80898 19.5299 6.40608 18.7014L6.07458 18.5034L2.62983 19.4026L3.54972 16.0573L3.33425 15.7121C2.42238 14.2688 1.94012 12.5978 1.94337 10.8928C1.94337 5.90705 6.02762 1.83981 11.047 1.83981C12.2427 1.83768 13.4271 2.07119 14.5318 2.52689C15.6365 2.98258 16.6396 3.65145 17.4834 4.49493C18.3302 5.33512 19.0014 6.33388 19.4585 7.43361C19.9155 8.53334 20.1493 9.71227 20.1464 10.9024C20.1409 15.906 16.0566 19.9664 11.0414 19.9664ZM16.0345 13.1822C15.7624 13.046 14.4185 12.3874 14.1657 12.2939C13.9144 12.2045 13.7307 12.1578 13.5511 12.43C13.3674 12.7009 12.8425 13.3183 12.6851 13.4957C12.5276 13.6785 12.3646 13.6992 12.0912 13.5644C11.8191 13.4269 10.9365 13.1409 9.89226 12.21C9.07735 11.4882 8.53177 10.5944 8.36878 10.3235C8.21132 10.0513 8.35359 9.90554 8.49033 9.76941C8.61049 9.64841 8.76243 9.45041 8.89917 9.29366C9.03729 9.13691 9.08287 9.02141 9.17265 8.83992C9.26243 8.65567 9.21961 8.49892 9.15193 8.36279C9.08287 8.22667 8.53729 6.8833 8.30663 6.34155C8.08563 5.80667 7.86049 5.88092 7.69199 5.87405C7.53453 5.86442 7.35083 5.86442 7.16713 5.86442C7.0284 5.86786 6.89189 5.8998 6.76615 5.95824C6.64041 6.01669 6.52817 6.10037 6.43646 6.20405C6.18508 6.4763 5.48204 7.13492 5.48204 8.47829C5.48204 9.82166 6.46271 11.1128 6.60083 11.2957C6.73619 11.4785 8.52624 14.2271 11.2735 15.4096C11.9226 15.6915 12.4337 15.8579 12.8329 15.9844C13.4889 16.1934 14.0815 16.1618 14.5539 16.0944C15.0787 16.0146 16.1713 15.4344 16.4019 14.7978C16.6284 14.1598 16.6284 13.6153 16.5594 13.5012C16.4917 13.3857 16.308 13.3183 16.0345 13.1822Z" fill="#FF581F"/>
</svg>
