<svg width="22" height="18" viewBox="0 0 22 18" fill="none" xmlns="http://www.w3.org/2000/svg">
<path d="M21.2143 0L0.785714 0C0.351116 0 0 0.365625 0 0.818182L0 17.1818C0 17.6344 0.351116 18 0.785714 18L21.2143 18C21.6489 18 22 17.6344 22 17.1818L22 0.818182C22 0.365625 21.6489 0 21.2143 0ZM20.2321 2.83295L20.2321 16.1591L1.76786 16.1591L1.76786 2.83295L1.09018 2.28324L2.05513 0.992046L3.10603 1.84347L18.8964 1.84347L19.9473 0.992046L20.9123 2.28324L20.2321 2.83295ZM18.8964 1.84091L11 8.23295L3.10357 1.84091L2.05268 0.989489L1.08772 2.28068L1.7654 2.8304L10.1529 9.62131C10.3941 9.81645 10.6909 9.92237 10.9963 9.92237C11.3018 9.92237 11.5985 9.81645 11.8397 9.62131L20.2321 2.83295L20.9098 2.28324L19.9449 0.992046L18.8964 1.84091Z" fill="#FF581F"/>
</svg>
