<svg width="128" height="19" viewBox="0 0 128 19" fill="none" xmlns="http://www.w3.org/2000/svg">
<path d="M9.10305 0.8172C9.46987 0.0739545 10.5297 0.0739539 10.8965 0.8172L12.9999 5.07917C13.1456 5.37432 13.4272 5.57889 13.7529 5.62622L18.4563 6.30966C19.2765 6.42884 19.604 7.43681 19.0105 8.01535L15.6071 11.3328C15.3714 11.5626 15.2638 11.8936 15.3195 12.218L16.1229 16.9023C16.263 17.7192 15.4056 18.3422 14.672 17.9565L10.4651 15.7448C10.1738 15.5917 9.82577 15.5917 9.53445 15.7448L5.32763 17.9565C4.594 18.3422 3.73656 17.7192 3.87667 16.9023L4.68011 12.218C4.73575 11.8936 4.6282 11.5626 4.39251 11.3328L0.989117 8.01535C0.3956 7.43681 0.723109 6.42884 1.54333 6.30966L6.2467 5.62622C6.57241 5.57889 6.85398 5.37432 6.99964 5.07917L9.10305 0.8172Z" fill="#E5E5E5"/>
<path d="M63.1031 0.8172C63.4699 0.0739545 64.5297 0.0739539 64.8965 0.8172L66.9999 5.07917C67.1456 5.37432 67.4272 5.57889 67.7529 5.62622L72.4563 6.30966C73.2765 6.42884 73.604 7.43681 73.0105 8.01535L69.6071 11.3328C69.3714 11.5626 69.2638 11.8936 69.3195 12.218L70.1229 16.9023C70.263 17.7192 69.4056 18.3422 68.672 17.9565L64.4651 15.7448C64.1738 15.5917 63.8258 15.5917 63.5345 15.7448L59.3276 17.9565C58.594 18.3422 57.7366 17.7192 57.8767 16.9023L58.6801 12.218C58.7358 11.8936 58.6282 11.5626 58.3925 11.3328L54.9891 8.01535C54.3956 7.43681 54.7231 6.42884 55.5433 6.30966L60.2467 5.62622C60.5724 5.57889 60.854 5.37432 60.9997 5.07917L63.1031 0.8172Z" fill="#E5E5E5"/>
<path d="M36.1031 0.8172C36.4699 0.0739545 37.5297 0.0739539 37.8965 0.8172L39.9999 5.07917C40.1456 5.37432 40.4272 5.57889 40.7529 5.62622L45.4563 6.30966C46.2765 6.42884 46.604 7.43681 46.0105 8.01535L42.6071 11.3328C42.3714 11.5626 42.2638 11.8936 42.3195 12.218L43.1229 16.9023C43.263 17.7192 42.4056 18.3422 41.672 17.9565L37.4651 15.7448C37.1738 15.5917 36.8258 15.5917 36.5345 15.7448L32.3276 17.9565C31.594 18.3422 30.7366 17.7192 30.8767 16.9023L31.6801 12.218C31.7358 11.8936 31.6282 11.5626 31.3925 11.3328L27.9891 8.01535C27.3956 7.43681 27.7231 6.42884 28.5433 6.30966L33.2467 5.62622C33.5724 5.57889 33.854 5.37432 33.9997 5.07917L36.1031 0.8172Z" fill="#E5E5E5"/>
<path d="M90.1031 0.8172C90.4699 0.0739545 91.5297 0.0739539 91.8965 0.8172L93.9999 5.07917C94.1456 5.37432 94.4272 5.57889 94.7529 5.62622L99.4563 6.30966C100.277 6.42884 100.604 7.43681 100.011 8.01535L96.6071 11.3328C96.3714 11.5626 96.2638 11.8936 96.3195 12.218L97.1229 16.9023C97.263 17.7192 96.4056 18.3422 95.672 17.9565L91.4651 15.7448C91.1738 15.5917 90.8258 15.5917 90.5345 15.7448L86.3276 17.9565C85.594 18.3422 84.7366 17.7192 84.8767 16.9023L85.6801 12.218C85.7358 11.8936 85.6282 11.5626 85.3925 11.3328L81.9891 8.01535C81.3956 7.43681 81.7231 6.42884 82.5433 6.30966L87.2467 5.62622C87.5724 5.57889 87.854 5.37432 87.9997 5.07917L90.1031 0.8172Z" fill="#E5E5E5"/>
<path d="M117.103 0.8172C117.47 0.0739545 118.53 0.0739539 118.897 0.8172L121 5.07917C121.146 5.37432 121.427 5.57889 121.753 5.62622L126.456 6.30966C127.277 6.42884 127.604 7.43681 127.011 8.01535L123.607 11.3328C123.372 11.5626 123.264 11.8936 123.32 12.218L124.123 16.9023C124.263 17.7192 123.406 18.3422 122.672 17.9565L118.465 15.7448C118.174 15.5917 117.826 15.5917 117.535 15.7448L113.328 17.9565C112.594 18.3422 111.737 17.7192 111.877 16.9023L112.68 12.218C112.736 11.8936 112.628 11.5626 112.393 11.3328L108.989 8.01535C108.396 7.43681 108.723 6.42884 109.544 6.30966L114.247 5.62622C114.573 5.57889 114.854 5.37432 115 5.07917L117.103 0.8172Z" fill="#E5E5E5"/>
</svg>
