<svg width="235" height="45" viewBox="0 0 235 45" fill="none" xmlns="http://www.w3.org/2000/svg">
<path d="M233.698 19.181L227.555 39.214C226.505 42.6618 223.334 45 219.748 45H199.081C197.139 45 195.276 44.3065 193.81 43.0779C192.363 44.2867 190.521 45 188.519 45H181.822C179.939 45 178.156 44.3659 176.729 43.1968C175.322 44.3461 173.519 45 171.617 45H150.95C150.217 45 149.503 44.9009 148.81 44.7028C148.116 44.9009 147.383 45 146.65 45H137.04C135.138 45 133.334 44.3461 131.888 43.177C130.481 44.3263 128.678 45 126.756 45H117.126C116.214 45 115.342 44.8415 114.51 44.5641C113.678 44.8613 112.786 45 111.875 45H91.2472C90.5734 45 89.8997 44.9207 89.2656 44.7622C89.2458 44.7622 89.2458 44.7622 89.2458 44.7622C88.6118 44.9207 87.9579 45 87.2841 45H66.6567C65.983 45 65.3092 44.9207 64.6752 44.7622C64.0411 44.9207 63.3872 45 62.7135 45H42.0464C41.2934 45 40.5404 44.9009 39.8469 44.7028C39.1534 44.9009 38.4004 45 37.6474 45H28.0371C26.1547 45 24.3515 44.3461 22.905 43.1968C21.4981 44.3461 19.695 45 17.7927 45H8.18243C5.58665 45 3.1494 43.7715 1.60383 41.6909C0.0582505 39.5905 -0.397496 36.8956 0.355476 34.4188L6.71611 13.712L6.0424 12.6816C4.37793 10.1651 4.23923 6.95509 5.68573 4.29987C7.11241 1.66447 9.86671 0 12.8786 0H26.5708C28.4532 0 30.2762 0.673712 31.7029 1.82299C33.1296 0.673712 34.9328 0 36.8548 0H46.4651C49.0609 0 51.4981 1.24835 53.0437 3.32893C54.193 4.85469 54.728 6.73712 54.6289 8.59974H68.8561C69.0543 8.59974 69.2524 8.59974 69.4506 8.63937C69.6091 8.59974 69.7874 8.59974 69.946 8.59974H93.4466C93.6448 8.59974 93.8429 8.59974 94.0411 8.63937C94.1996 8.59974 94.3779 8.59974 94.5365 8.59974H113.658C113.579 7.13342 113.896 5.64729 114.629 4.29987C116.056 1.66447 118.83 0 121.822 0H155.428C158.024 0 160.461 1.24835 162.007 3.32893C163.156 4.85469 163.691 6.73712 163.592 8.59974H163.83C165.098 8.59974 166.326 8.89696 167.436 9.43197C168.526 8.89696 169.754 8.59974 171.023 8.59974H177.76C177.958 8.59974 178.156 8.59974 178.354 8.63937C178.513 8.59974 178.691 8.59974 178.85 8.59974H201.32C201.518 8.59974 201.696 8.59974 201.894 8.63937C202.053 8.59974 202.211 8.59974 202.37 8.59974H225.89C228.466 8.59974 230.924 9.82827 232.449 11.9089C233.995 14.0092 234.47 16.7041 233.698 19.181Z" fill="white"/>
<path d="M229.794 17.9721L223.652 38.0249C223.117 39.729 221.532 40.9179 219.748 40.9179H199.081C197.773 40.9179 196.565 40.3037 195.792 39.2535C195.019 38.2033 194.781 36.8559 195.177 35.6273L198.17 25.8585H196.168L192.443 38.0249C191.908 39.729 190.323 40.9179 188.52 40.9179H181.822C180.534 40.9179 179.306 40.3037 178.533 39.2535C177.78 38.2033 177.542 36.8757 177.919 35.6273L180.93 25.7396C180.415 25.6009 179.92 25.3631 179.504 25.0461L175.521 38.0249C175.006 39.729 173.421 40.9179 171.617 40.9179H150.95C150.177 40.9179 149.425 40.7 148.79 40.2839C148.156 40.7 147.423 40.9179 146.65 40.9179H137.04C135.732 40.9179 134.524 40.3037 133.751 39.2535C132.978 38.2231 132.74 36.8757 133.117 35.6273L134.306 31.7238H132.582L130.66 38.0051C130.144 39.729 128.559 40.9179 126.756 40.9179H117.126C116.155 40.9179 115.224 40.5811 114.491 39.947C113.777 40.5613 112.866 40.9179 111.875 40.9179H91.2475C90.5342 40.9179 89.8406 40.7396 89.2462 40.3829C88.6517 40.7396 87.978 40.9179 87.2845 40.9179H66.657C65.9437 40.9179 65.27 40.7396 64.6755 40.4027C64.0811 40.7396 63.4074 40.9179 62.7138 40.9179H42.0467C41.2541 40.9179 40.4813 40.6802 39.8274 40.264C39.1934 40.6802 38.4404 40.9179 37.6478 40.9179H28.0375C26.7495 40.9179 25.521 40.3037 24.7482 39.2535C23.9754 38.2231 23.7376 36.8757 24.1141 35.6471L25.2435 31.9219L24.0745 30.2376L21.6966 38.0051C21.1815 39.729 19.5963 40.9179 17.7931 40.9179H8.18278C6.87499 40.9179 5.66627 40.3037 4.89348 39.2535C4.12069 38.2033 3.88291 36.8559 4.2594 35.6273L11.1947 13.0778L9.45094 10.4226C8.63853 9.17422 8.55927 7.5692 9.27261 6.24159C9.98595 4.91398 11.373 4.10156 12.8789 4.10156H26.5712C27.8591 4.10156 29.0877 4.71583 29.8605 5.74621C30.6332 6.79641 30.8512 8.14383 30.4747 9.37237L29.3651 13.0183L31.6438 11.3142L32.9318 7.01438C33.4668 5.29047 35.052 4.10156 36.8552 4.10156H46.4655C47.7733 4.10156 48.982 4.71583 49.7548 5.74621C50.5276 6.79641 50.7653 8.14383 50.3889 9.39218L49.3783 12.7013H68.8565C69.0348 12.7013 69.2132 12.7211 69.3915 12.7409C69.3915 12.7409 69.3915 12.7409 69.4113 12.7409C69.5897 12.7211 69.768 12.7013 69.9463 12.7013H93.447C93.6253 12.7013 93.8037 12.7211 93.982 12.7409H94.0018C94.1801 12.7211 94.3585 12.7013 94.5368 12.7013H118.057C118.79 12.7013 119.484 12.8994 120.098 13.2561L120.158 13.0778L118.414 10.4226C117.582 9.17422 117.522 7.5692 118.236 6.24159C118.949 4.91398 120.336 4.10156 121.822 4.10156H155.428C156.736 4.10156 157.945 4.71583 158.718 5.76603C159.491 6.79641 159.728 8.14383 159.332 9.39218L158.321 12.7013H163.83C165.138 12.7013 166.347 13.3156 167.119 14.3459C167.238 14.5045 167.337 14.663 167.436 14.8413C168.13 13.5335 169.517 12.7013 171.023 12.7013H177.76C177.938 12.7013 178.117 12.7211 178.295 12.7409C178.315 12.7409 178.315 12.7409 178.315 12.7409C178.493 12.7211 178.672 12.7013 178.85 12.7013H201.32C201.498 12.7013 201.697 12.7211 201.875 12.7409C202.033 12.7211 202.212 12.7013 202.37 12.7013H225.891C227.179 12.7013 228.407 13.3156 229.16 14.3459C229.933 15.3961 230.171 16.7436 229.794 17.9721Z" fill="black"/>
<path d="M12.8788 8.18359H26.571L23.2817 18.963H28.2949L35.1707 13.7714L36.855 8.18359H46.4653L43.6318 17.4372L36.8946 22.5297L40.4812 27.5429L37.6476 36.8164H28.0373L29.7216 31.2285L26.1747 26.037H21.0822L17.7929 36.8164H8.18262L15.6727 12.4438L12.8788 8.18359Z" fill="#FF581F"/>
<path d="M47.2974 19.7555L45.3357 16.7832H68.8562L62.7135 36.8162H42.0464L47.2974 19.7555ZM53.4004 21.7766L50.2895 31.8625H57.4823L60.5933 21.7766H53.4004Z" fill="#FF581F"/>
<path d="M71.8874 19.7555L69.9257 16.7832H93.4462L91.4647 23.2627L86.7487 26.8294H90.3551L87.2837 36.8162H66.6562L71.8874 19.7555ZM74.8993 31.8625H82.0724L82.8452 29.2865H75.6721L74.8993 31.8625ZM80.7249 24.3129L84.1331 21.7766H77.9905L77.2177 24.3129H80.7249Z" fill="#FF581F"/>
<path d="M96.4986 19.7555L94.5369 16.7832H118.057L116.076 23.2627L111.36 26.8294H114.966L111.895 36.8162H91.2476L96.4986 19.7555ZM99.5104 31.8625H106.683L107.456 29.2865H100.283L99.5104 31.8625ZM105.336 24.3129L108.744 21.7766H102.602L101.829 24.3129H105.336Z" fill="#FF581F"/>
<path d="M146.651 36.8164H137.04L139.834 27.642H129.55L126.756 36.8164H117.146L124.636 12.4438L121.842 8.18359H155.449L146.651 36.8164ZM131.77 20.5482H142.054L143.659 15.317H133.355L131.77 20.5482Z" fill="white"/>
<path d="M154.24 16.7832H163.83L159.213 31.8625H166.406L171.023 16.7832H177.76L171.618 36.8162H150.97L156.221 19.7555L154.24 16.7832Z" fill="white"/>
<path d="M178.85 16.7832H201.3L199.754 21.7766H193.156L188.539 36.8162H181.842L186.439 21.7766H181.98L178.85 16.7832Z" fill="white"/>
<path d="M204.332 19.7555L202.37 16.7832H225.891L219.748 36.8162H199.081L204.332 19.7555ZM210.435 21.7766L207.324 31.8625H214.517L217.628 21.7766H210.435Z" fill="white"/>
</svg>
