<svg width="100" height="50" viewBox="0 0 100 50" fill="none" xmlns="http://www.w3.org/2000/svg">
<path d="M99.6079 11.7767L89.831 43.5689C88.6379 47.3989 85.1249 50.0001 81.1037 50.0001H70.4209C68.2833 50.0001 66.2948 49.2782 64.6653 47.9776C63.1076 49.2396 61.0804 50.0001 58.9428 50.0001H48.2601C47.1388 50.0001 46.0506 49.7852 45.0398 49.4214C44.0621 49.8182 43.0126 50.0001 41.9244 50.0001H31.2085C29.1096 50.0001 27.1155 49.2782 25.5247 47.9776C23.9339 49.2396 21.9399 50.0001 19.8022 50.0001H9.11946C6.22507 50.0001 3.50744 48.6279 1.80615 46.3133C0.0662016 43.9657 -0.441974 41.0008 0.392097 38.2234L7.48999 15.2486L6.72772 14.0913C4.88282 11.2752 4.73369 7.73174 6.33002 4.77241C7.92083 1.84063 11.003 0 14.3338 0H29.5791C31.6781 0 33.7052 0.721923 35.3016 2.02249C36.8924 0.760499 38.8809 0 41.0185 0H51.7344C52.0217 0 52.2757 0 52.5685 0.0716412C52.8612 0 53.1871 0 53.4744 0H90.8805C93.7749 0 96.4926 1.37221 98.1938 3.68677C99.9338 5.99582 100.442 8.99373 99.6079 11.7767Z" fill="white"/>
<path d="M95.2277 10.4435L85.4509 42.2357C84.8709 44.148 83.131 45.4485 81.1038 45.4485H70.421C68.9738 45.4485 67.5984 44.7597 66.7257 43.6079C65.8916 42.4506 65.6376 40.9682 66.0353 39.5629L67.3775 35.2644H65.4221L63.3231 42.2357C62.7432 44.148 60.9701 45.4485 58.9429 45.4485H48.2601C47.067 45.4485 45.9071 44.9801 45.1117 44.148C44.2776 44.9801 43.1176 45.4485 41.9245 45.4485H31.2086C29.7614 45.4485 28.4192 44.7597 27.552 43.6079C26.6848 42.4506 26.4307 40.9682 26.8615 39.596L28.0933 35.4794L26.8284 33.6002L24.1826 42.2357C23.6026 44.148 21.8295 45.4485 19.8023 45.4485H9.11956C7.67236 45.4485 6.29697 44.7597 5.4629 43.6079C4.59569 42.4506 4.3416 40.9351 4.77245 39.5629L12.4835 14.5215L10.5281 11.5953C9.62221 10.1845 9.5504 8.4155 10.3458 6.93308C11.1412 5.45066 12.6657 4.54688 14.3284 4.54688H29.5736C31.0208 4.54688 32.3962 5.23573 33.2303 6.3875C34.0975 7.54479 34.3516 9.02721 33.9539 10.3994L32.7221 14.4444L35.2188 12.5652L36.666 7.79829C37.246 5.84744 39.0191 4.54688 41.0131 4.54688H51.729C52.0162 4.54688 52.309 4.58545 52.5962 4.65709C52.8834 4.58545 53.1762 4.54688 53.4634 4.54688H90.8696C92.3168 4.54688 93.659 5.23573 94.5262 6.3875C95.4045 7.5503 95.6586 9.06578 95.2277 10.4435Z" fill="black"/>
<path d="M14.3447 9.09766H29.5899L25.9388 21.0617H31.5122L39.1624 15.3029L41.0349 9.10317H51.7398L48.5803 19.392L41.0847 25.0461L45.0783 30.6121L41.9243 40.9009H31.2139L33.0919 34.7011L29.1425 28.9423H23.4697L19.8186 40.9064H9.11377L17.4545 13.8315L14.3447 9.09766Z" fill="#FF581F"/>
<path d="M81.1146 40.9009H70.4098L73.5196 30.7113H62.0746L58.9648 40.9009H48.2544L56.5951 13.826L53.4853 9.09766H90.8859L81.1146 40.9009ZM64.5381 22.8307H75.9831L77.7562 17.0223H66.3112L64.5381 22.8307Z" fill="white"/>
</svg>
